<svg width="76" height="50" viewBox="0 0 76 50" fill="none" xmlns="http://www.w3.org/2000/svg">
<g clip-path="url(#clip0_42_160)">
<path d="M26.4062 47.8948C26.3458 47.8974 26.2859 47.8822 26.2348 47.851C26.1836 47.8198 26.1437 47.7743 26.1203 47.7205C26.097 47.6668 26.0913 47.6074 26.1042 47.5505C26.1171 47.4935 26.1478 47.4418 26.1923 47.4023L26.2125 47.3248C26.2098 47.3186 26.2072 47.3125 26.2045 47.3063C26.1436 47.1678 26.0415 47.0497 25.9111 46.9669C25.7807 46.884 25.6277 46.8401 25.4715 46.8407C25.3152 46.8413 25.1626 46.8862 25.0329 46.97C24.9031 47.0538 24.8019 47.1726 24.7421 47.3115C24.5029 47.866 24.1984 48.4214 24.1234 49.0076C24.0904 49.2668 24.1043 49.5295 24.1646 49.784C23.6028 48.6045 23.3111 47.3225 23.3092 46.025C23.3091 45.6994 23.3279 45.3741 23.3655 45.0505C23.3966 44.7852 23.4397 44.5218 23.4949 44.2603C23.796 42.8415 24.4425 41.5117 25.3812 40.38C25.8356 40.1414 26.203 39.7745 26.434 39.3287C26.5177 39.1684 26.5769 38.9974 26.6097 38.8208C26.5584 38.8273 26.4164 38.0759 26.4551 38.0298C26.3836 37.9255 26.2558 37.8737 26.1778 37.7719C25.7898 37.2656 25.2553 37.354 24.9762 38.042C24.3801 38.3316 24.3744 38.8118 24.7401 39.2737C24.9728 39.5675 25.0048 39.9652 25.209 40.2797C25.188 40.3056 25.1661 40.3307 25.1451 40.3566C24.7611 40.8318 24.4265 41.3422 24.1459 41.8803C24.2141 41.2774 24.1327 40.6676 23.9083 40.101C23.6809 39.573 23.2546 39.1282 22.8792 38.6717C22.4284 38.1234 21.5038 38.3627 21.4243 39.0578C21.4235 39.0645 21.4228 39.0712 21.4221 39.078C21.4778 39.1082 21.5324 39.1404 21.5858 39.1744C21.6529 39.2175 21.7049 39.2792 21.7349 39.3512C21.765 39.4233 21.7718 39.5024 21.7543 39.5782C21.7369 39.6541 21.696 39.723 21.6371 39.7761C21.5783 39.8292 21.5041 39.864 21.4244 39.8758L21.4162 39.877C21.4361 40.0704 21.4712 40.2621 21.5212 40.4504C21.0397 42.2429 22.0793 42.8958 23.5638 42.9251C23.5966 42.9413 23.6285 42.9575 23.6613 42.9728C23.3794 43.7417 23.2026 44.5426 23.1353 45.3554C23.0972 45.8349 23.0994 46.3166 23.142 46.7957L23.1395 46.7788C23.0319 46.2459 22.7366 45.7652 22.3035 45.4177C21.6601 44.909 20.7511 44.7216 20.057 44.3127C19.9833 44.2672 19.8975 44.2428 19.8099 44.2426C19.7222 44.2424 19.6363 44.2663 19.5623 44.3116C19.4883 44.3568 19.4293 44.4215 19.3922 44.4979C19.3552 44.5744 19.3416 44.6595 19.3531 44.7431C19.354 44.7491 19.355 44.755 19.3559 44.761C19.4594 44.8015 19.5602 44.8482 19.6576 44.9009C19.7133 44.9311 19.7679 44.9633 19.8213 44.9973C19.8884 45.0404 19.9404 45.1021 19.9705 45.1741C20.0005 45.2462 20.0073 45.3253 19.9898 45.4011C19.9724 45.4769 19.9315 45.5459 19.8727 45.599C19.8138 45.6521 19.7396 45.6869 19.6599 45.6987L19.6517 45.6999C19.6458 45.7007 19.6408 45.7015 19.6349 45.7023C19.8117 46.1086 20.0598 46.4826 20.3684 46.8079C20.6695 48.3727 21.9628 48.5211 23.3462 48.0654H23.347C23.4988 48.7003 23.7187 49.3183 24.0033 49.9094H26.3475C26.3559 49.8843 26.3635 49.8584 26.371 49.8333C26.154 49.8465 25.9362 49.834 25.7224 49.7961C25.8963 49.5907 26.0702 49.3837 26.2442 49.1783C26.248 49.1744 26.2517 49.1704 26.2551 49.1661C26.3433 49.061 26.4324 48.9567 26.5206 48.8515L26.5206 48.8514C26.5253 48.5291 26.4868 48.2076 26.4062 47.8948Z" fill="#F2F2F2"/>
<path d="M8.375 44.482L9.02182 45.14L12.0252 42.9983L11.0706 42.0271L8.375 44.482Z" fill="#A0616A"/>
<path d="M9.43499 44.846L8.70273 44.1839L8.52291 44.0217L6.65869 45.4563L7.14363 45.9496L7.71444 45.5973L7.45221 46.2636L8.73794 47.5716C8.79954 47.6343 8.88037 47.6765 8.96861 47.6918C9.05686 47.7072 9.14791 47.6951 9.22847 47.6572C9.30903 47.6192 9.37489 47.5575 9.41643 47.481C9.45797 47.4045 9.47302 47.3172 9.45938 47.2319L9.1819 45.504L9.67086 45.0589L9.43499 44.846Z" fill="#2F2E41"/>
<path d="M22.5902 20.5244L22.3852 22.6793C22.3852 22.6793 22.0272 24.3028 22.2751 24.1712C22.5229 24.0396 22.0785 24.6319 22.1956 25.1455C22.3126 25.6591 21.1958 29.489 21.7016 29.0923C22.2075 28.6955 21.4093 31.4364 20.9045 32.7886C20.75 33.2066 20.5912 33.6297 20.4313 34.0498C20.3998 34.1348 20.3682 34.2188 20.3357 34.3038C20.1285 34.8504 19.9213 35.3888 19.7226 35.8969C19.6942 35.9678 19.6668 36.0386 19.6395 36.1085C19.6385 36.1105 19.6385 36.1125 19.6374 36.1125C18.9833 37.7694 18.4228 39.0731 18.1989 39.2887C18.0822 39.401 16.2304 40.6885 14.3638 41.9779C12.4048 43.3312 10.4299 44.6875 10.4299 44.6875L8.58545 42.8251C8.58545 42.8251 8.62961 42.813 8.71269 42.7887C8.86622 42.7462 9.15016 42.6662 9.52242 42.5599C11.0745 42.1196 9.10282 41.4344 10.512 40.9445C10.9094 40.8069 11.1744 40.6996 11.2343 40.6429C11.5845 40.314 12.0546 39.5296 12.2765 39.8585C12.4983 40.1875 13.5047 37.7431 13.7949 37.5012C13.9506 37.3706 14.4585 36.7603 14.8938 36.2239C15.2681 35.7623 15.5899 35.3544 15.5899 35.3544C15.5899 35.3544 15.5962 35.1358 15.6057 34.7876C15.6194 34.2725 15.6394 33.4718 15.6604 32.6702C15.6594 32.6692 15.6594 32.6692 15.6604 32.6692C15.6678 32.3676 15.6751 32.0659 15.6825 31.7795C15.6877 31.5578 15.693 31.3443 15.6983 31.1469C15.7119 30.5558 15.7214 30.1085 15.7214 29.9971C15.7214 29.6317 15.7214 29.9162 16.0211 29.6955C16.0658 29.6617 16.1083 29.6252 16.1483 29.5862C16.2124 29.5307 16.2715 29.4701 16.325 29.405C16.3471 29.3595 16.2093 29.4212 16.0305 29.3868C15.9337 29.3681 15.8442 29.324 15.7719 29.2593C15.3954 28.9334 15.8013 27.9314 15.8013 27.9314C14.9453 26.2835 15.0074 24.9323 15.408 23.8908C15.7076 23.1434 16.1831 22.4731 16.7971 21.9323C17.0308 21.718 17.2855 21.5258 17.5575 21.3584L17.5838 21.2218L17.8729 19.7147C18.0267 19.6334 18.1866 19.5634 18.3514 19.5052C18.865 19.3278 19.4161 19.275 19.956 19.3514C20.4926 19.4261 21.0121 19.588 21.4924 19.8301C21.885 20.0199 22.2534 20.2529 22.5902 20.5244Z" fill="#2F2E41"/>
<path d="M14.5137 47.8395L15.4507 47.9234L16.2403 44.4067L14.8572 44.283L14.5137 47.8395Z" fill="#A0616A"/>
<path d="M17.2125 49.2177L15.8202 48.0953L15.8833 47.4495L15.5594 47.4394L14.5562 47.408H14.5551L14.3091 47.3999L13.8916 49.6611L14.5951 49.7238L14.7812 49.0963L15.041 49.7643L15.4132 49.7977L16.9033 49.9313C16.9159 49.9323 16.9296 49.9333 16.9422 49.9333C17.0015 49.9334 17.06 49.9214 17.1141 49.898C17.1681 49.8746 17.2163 49.8404 17.2556 49.7977C17.3166 49.7334 17.3539 49.6516 17.3618 49.5649C17.3679 49.4997 17.3576 49.4341 17.3316 49.3736C17.3055 49.3131 17.2647 49.2596 17.2125 49.2177Z" fill="#2F2E41"/>
<path d="M19.7228 35.897C19.3663 37.7644 17.8573 42.143 16.9445 44.7058C16.5291 45.8768 16.2389 46.6693 16.2389 46.6693L15.7657 46.5256H15.7647L14.9644 46.2826L14.6731 46.1936H14.6721L14.3187 46.0853C14.3187 46.0853 14.3598 43.9942 14.364 41.978C14.3671 41.1328 14.3629 40.2998 14.3461 39.6399C14.3272 38.9203 14.2946 38.4051 14.241 38.3029C14.019 37.8838 14.3903 37.8393 14.7825 37.734C15.1758 37.6278 14.8687 37.4678 14.7162 37.1278C14.6132 36.901 14.8161 36.5984 14.9602 36.4263C15 36.3779 15.0424 36.3316 15.0875 36.2877C15.0875 36.2877 15.018 36.2644 14.894 36.2239C15.2683 35.7624 15.5901 35.3545 15.5901 35.3545C15.5901 35.3545 15.5964 35.1358 15.6058 34.7877C15.6196 34.2725 15.6395 33.4719 15.6606 32.6703C15.6595 32.6692 15.6595 32.6692 15.6606 32.6692C15.6679 32.3676 15.6753 32.066 15.6827 31.7795C16.2841 32.2239 16.8688 32.6591 17.3988 33.062C17.3994 33.0625 17.4 33.0631 17.4003 33.0638C17.4007 33.0645 17.4009 33.0652 17.4009 33.066C18.6743 34.0346 19.6302 34.812 19.7648 35.0589C19.8258 35.1702 19.8048 35.4679 19.7228 35.897Z" fill="#2F2E41"/>
<path d="M51.0728 2.92446C51.2481 2.90868 51.4229 2.95936 51.5599 3.06572C51.697 3.17208 51.7855 3.32572 51.8067 3.49396C51.8104 3.52822 51.8112 3.56272 51.8091 3.59711L53.9776 4.48843L53.8949 5.70667L51.0614 4.17653C50.9139 4.15683 50.7774 4.09071 50.6731 3.98847C50.5688 3.88624 50.5026 3.75365 50.4849 3.61139C50.4756 3.53036 50.4829 3.44835 50.5065 3.37005C50.5302 3.29175 50.5696 3.2187 50.6225 3.15507C50.6755 3.09143 50.741 3.03846 50.8152 2.99917C50.8894 2.95988 50.9709 2.93505 51.0551 2.9261C51.061 2.92548 51.0669 2.92493 51.0728 2.92446Z" fill="#FFB6B6"/>
<path d="M65.8267 10.4444C65.7732 10.2083 65.6736 9.98399 65.5333 9.78349C65.4943 9.72643 65.4518 9.67168 65.4061 9.61951C65.2357 9.4242 65.0769 9.24504 64.9297 9.08511C64.8403 8.98489 64.753 8.89178 64.671 8.80578C64.1947 8.30273 63.8824 8.03654 63.7394 8.01425C63.6699 8.00313 63.6016 7.99503 63.5353 7.98692C63.1957 7.94645 62.9496 7.91709 62.9423 7.57193C62.9415 7.52248 62.945 7.47305 62.9527 7.42416C62.9655 7.34205 62.9841 7.26089 63.0085 7.18125C63.0225 7.13611 63.0334 7.09013 63.0411 7.04361C63.0516 6.98391 63.0474 6.93933 63.0137 6.912C62.9717 6.87864 62.9012 6.88369 62.7687 6.93429C62.7477 6.9424 62.7235 6.95149 62.6983 6.96261C62.6898 6.96568 62.6815 6.96973 62.672 6.97378C62.6552 6.98085 62.6362 6.98895 62.6173 6.99805C62.4585 7.07094 62.2135 7.08004 61.9338 7.0527C61.1083 6.97175 59.9916 6.57094 59.9779 6.56585L52.945 3.9353L52.8798 4.03652L52.7252 4.2774L52.6716 4.36038L52.6106 4.45551L52.3445 4.86848L52.21 5.07699L54.4814 6.72578L54.7284 6.90493L54.9409 7.05981L59.2775 10.2086L60.8948 11.2359L61.2555 11.4646L62.793 12.4404C63.0139 12.5809 63.2619 12.6774 63.5223 12.7242C63.7826 12.771 64.0501 12.7671 64.3088 12.7127C64.5676 12.6584 64.8124 12.5547 65.0289 12.4078C65.2453 12.2609 65.429 12.0737 65.5691 11.8574C65.8421 11.4364 65.9344 10.9298 65.8267 10.4444Z" fill="#E6E6E6"/>
<path d="M75.8948 50H0.105157C0.0772675 50 0.0505203 49.9894 0.0307996 49.9704C0.0110789 49.9514 0 49.9257 0 49.8988C0 49.872 0.0110789 49.8462 0.0307996 49.8272C0.0505203 49.8083 0.0772675 49.7976 0.105157 49.7976H75.8948C75.9227 49.7976 75.9495 49.8083 75.9692 49.8272C75.9889 49.8462 76 49.872 76 49.8988C76 49.9257 75.9889 49.9514 75.9692 49.9704C75.9495 49.9894 75.9227 50 75.8948 50Z" fill="#E6E6E6"/>
<path d="M17.3418 16.8818L17.5389 18.6412L17.423 20.948L22.7318 20.3411L23.2306 16.8818L22.595 16.8879L17.3418 16.8818Z" fill="#FFB6B6"/>
<path d="M21.8577 11.1995L19.8597 9.68125L18.8109 9.62256L17.2547 10.5822L16.8736 12.4534L15.9724 14.5605L17.2942 20.2469C17.2942 20.2469 17.4182 20.655 17.0933 20.704C16.7684 20.753 16.8074 21.3545 16.8074 21.3545C16.8074 21.3545 16.8735 21.8758 16.5581 21.9217C16.2426 21.9676 15.4014 21.9676 16.1375 22.8785C16.8736 23.7894 22.6957 20.3441 22.6957 20.3441L23.5413 16.0734C23.5413 16.0734 25.1812 13.9534 23.4151 12.7392L21.8577 11.1995Z" fill="#E6E6E6"/>
<path d="M13.1353 24.1103C13.0473 24.0045 12.9844 23.8815 12.9511 23.7498C12.9179 23.6182 12.915 23.4811 12.9427 23.3482C12.9704 23.2154 13.028 23.09 13.1115 22.9809C13.195 22.8718 13.3023 22.7816 13.4259 22.7168L15.9391 14.5989L17.5105 15.3604L14.7737 23.1413C14.8731 23.3484 14.8901 23.5834 14.8216 23.8018C14.753 24.0202 14.6036 24.2068 14.4016 24.3262C14.1997 24.4456 13.9592 24.4896 13.7259 24.4498C13.4925 24.41 13.2824 24.2892 13.1353 24.1103Z" fill="#A0616A"/>
<path d="M17.6156 10.5068C17.6156 10.5068 17.1664 10.2771 16.8591 11.2714C16.6132 12.0675 14.6171 16.8092 14.5917 17.962C14.4274 17.9955 14.2794 18.0807 14.1709 18.2041C14.0625 18.3275 13.9998 18.4821 13.9927 18.6436L16.4606 18.9619C16.8918 18.6118 17.005 18.1389 16.8381 17.9986L17.3739 16.59L19.6094 12.1082L17.9434 10.6674L17.6156 10.5068Z" fill="#E6E6E6"/>
<path d="M30.8024 21.4419C30.8342 21.3099 30.8357 21.1728 30.8065 21.0402C30.7774 20.9076 30.7184 20.7828 30.6337 20.6746C30.5491 20.5663 30.4408 20.4772 30.3165 20.4136C30.1922 20.35 30.0549 20.3134 29.9143 20.3064L24.1492 13.969L22.9263 15.3735L28.8898 21.2501C28.8932 21.4783 28.9835 21.6972 29.1434 21.8656C29.3033 22.034 29.5219 22.14 29.7576 22.1636C29.9934 22.1873 30.2299 22.1269 30.4225 21.9938C30.6151 21.8608 30.7502 21.6644 30.8024 21.4419Z" fill="#A0616A"/>
<path d="M20.651 11.041C20.651 11.041 20.9528 10.6468 21.6766 11.4155C22.2561 12.0309 26.1862 15.4755 26.7271 16.5044C26.8902 16.4662 27.062 16.4814 27.2152 16.5475C27.3684 16.6136 27.4944 16.7269 27.5734 16.8696L25.4912 18.1838C24.945 18.0476 24.6306 17.6684 24.718 17.4724L23.602 16.4253L19.5728 13.3148L20.4276 11.3222L20.651 11.041Z" fill="#E6E6E6"/>
<path d="M42.1497 28.4413C50.2804 28.4413 56.8716 22.0971 56.8716 14.2712C56.8716 6.44524 50.2804 0.101074 42.1497 0.101074C34.019 0.101074 27.4277 6.44524 27.4277 14.2712C27.4277 22.0971 34.019 28.4413 42.1497 28.4413Z" fill="#4C38C2"/>
<path opacity="0.2" d="M41.4534 19.2864C40.779 19.9355 39.8643 20.3002 38.9105 20.3002C37.9567 20.3002 37.042 19.9355 36.3676 19.2864C35.788 18.7283 35.4239 17.9964 35.3355 17.212C35.2471 16.4275 35.4398 15.6376 35.8816 14.9729L35.0904 15.7498C34.416 16.399 34.0371 17.2794 34.0371 18.1974C34.0371 19.1155 34.416 19.9959 35.0904 20.645C35.7648 21.2942 36.6796 21.6589 37.6334 21.6589C38.5871 21.6589 39.5018 21.2942 40.1763 20.6451L41.9296 18.8928L41.9563 18.7838L41.4534 19.2864Z" fill="black"/>
<path opacity="0.2" d="M43.1235 8.4607C43.9119 7.94392 44.8812 7.74973 45.8182 7.92083C46.7553 8.09194 47.5834 8.61433 48.1203 9.37309C48.5816 10.0253 48.7976 10.8097 48.7326 11.5963C48.6675 12.3828 48.3252 13.1244 47.7625 13.6981L48.6902 13.0768C49.4786 12.56 50.0213 11.763 50.1991 10.861C50.3768 9.95906 50.1751 9.02609 49.6382 8.26733C49.1013 7.50857 48.2732 6.98617 47.3361 6.81506C46.3991 6.64396 45.4297 6.83815 44.6414 7.35493L42.5795 8.76198L42.5322 8.86422L43.1235 8.4607Z" fill="black"/>
<path d="M37.6334 22.0918C36.8598 22.0918 36.1035 21.871 35.4602 21.4572C34.8169 21.0435 34.3155 20.4555 34.0194 19.7675C33.7234 19.0795 33.6459 18.3225 33.7968 17.5921C33.9478 16.8618 34.3203 16.1909 34.8674 15.6644L38.187 12.4045C38.5502 12.0544 38.9814 11.7766 39.4561 11.587C39.9308 11.3974 40.4397 11.2998 40.9537 11.2996C41.4676 11.2994 41.9766 11.3967 42.4515 11.5859C42.9263 11.7751 43.3578 12.0525 43.7212 12.4023C43.7804 12.4593 43.8136 12.5365 43.8136 12.617C43.8136 12.6976 43.7804 12.7748 43.7212 12.8317C43.6621 12.8887 43.5818 12.9206 43.4982 12.9206C43.4145 12.9206 43.3343 12.8887 43.2751 12.8317C42.6599 12.2395 41.8254 11.9068 40.9553 11.9069C40.0852 11.9069 39.2507 12.2395 38.6354 12.8317C38.1478 14.4862 37.0943 15.6214 35.3158 16.0916C35.0106 16.3846 34.7685 16.7326 34.6031 17.1158C34.4377 17.4989 34.3524 17.9097 34.3521 18.3246C34.3517 18.7394 34.4363 19.1503 34.601 19.5337C34.7657 19.9172 35.0072 20.2656 35.3119 20.5591C35.6165 20.8526 35.9783 21.0854 36.3765 21.2443C36.7746 21.4032 37.2014 21.485 37.6325 21.4851C38.0635 21.4851 38.4904 21.4034 38.8886 21.2446C39.2868 21.0858 39.6486 20.853 39.9533 20.5596C39.8814 19.8809 40.0875 19.2428 41.7025 18.8114C41.7312 18.7825 41.7655 18.7594 41.8035 18.7434C41.8415 18.7273 41.8824 18.7186 41.9239 18.7178C41.9654 18.717 42.0067 18.7241 42.0453 18.7387C42.084 18.7532 42.1192 18.775 42.1491 18.8027C42.179 18.8304 42.2029 18.8635 42.2195 18.9002C42.2361 18.9368 42.245 18.9762 42.2457 19.0161C42.2464 19.0561 42.2389 19.0957 42.2237 19.1329C42.2084 19.17 42.1857 19.2039 42.1569 19.2326L40.4036 20.9849C40.0409 21.3367 39.6093 21.6157 39.1338 21.8057C38.6583 21.9957 38.1483 22.0929 37.6334 22.0918Z" fill="white"/>
<path d="M43.0225 17.4803C42.5085 17.4816 41.9995 17.3849 41.5247 17.1956C41.0499 17.0063 40.6188 16.7282 40.2564 16.3775C40.1973 16.3205 40.1641 16.2433 40.1641 16.1627C40.1641 16.0822 40.1973 16.005 40.2565 15.948C40.3157 15.8911 40.3959 15.8591 40.4796 15.8591C40.5632 15.8591 40.6435 15.8911 40.7026 15.9481C41.0073 16.2413 41.3689 16.4739 41.767 16.6326C42.165 16.7913 42.5916 16.873 43.0225 16.873C43.4533 16.873 43.8799 16.7913 44.278 16.6326C44.676 16.4739 45.0377 16.2413 45.3423 15.9481C45.7627 13.5104 47.4768 13.1664 48.9667 12.4596C49.2714 12.1664 49.513 11.8183 49.6779 11.4352C49.8428 11.052 49.9276 10.6414 49.9276 10.2267C49.9276 9.81202 49.8428 9.40139 49.6779 9.01827C49.513 8.63514 49.2713 8.28703 48.9667 7.9938C48.662 7.70057 48.3004 7.46796 47.9023 7.30927C47.5043 7.15058 47.0776 7.0689 46.6468 7.0689C46.216 7.06891 45.7893 7.15059 45.3913 7.30929C44.9932 7.46798 44.6316 7.70059 44.3269 7.99382C43.9125 9.14475 43.5055 10.3093 42.2711 9.97256C42.2418 10.0008 42.2071 10.0231 42.1688 10.0384C42.1305 10.0536 42.0895 10.0615 42.0481 10.0615C41.9644 10.0615 41.8842 10.0295 41.825 9.97256C41.7659 9.91562 41.7326 9.8384 41.7326 9.75787C41.7326 9.67734 41.7659 9.60011 41.825 9.54317L43.8808 7.56444C44.244 7.21482 44.6753 6.93749 45.1498 6.74827C45.6244 6.55906 46.1331 6.46167 46.6468 6.46167C47.1605 6.46167 47.6691 6.55905 48.1437 6.74826C48.6183 6.93747 49.0495 7.2148 49.4128 7.56442C49.776 7.91403 50.0641 8.32909 50.2607 8.78589C50.4573 9.24268 50.5585 9.73227 50.5585 10.2267C50.5585 10.7211 50.4573 11.2107 50.2607 11.6675C50.0641 12.1243 49.776 12.5394 49.4128 12.889L45.7884 16.3775C45.426 16.7282 44.995 17.0063 44.5202 17.1956C44.0454 17.3849 43.5363 17.4816 43.0225 17.4803Z" fill="white"/>
<path d="M54.9407 7.05976C54.3223 6.04904 53.5783 5.11467 52.725 4.27733C52.5346 4.09111 52.338 3.9089 52.1372 3.73177C52.0257 3.63362 51.9132 3.53744 51.7985 3.44329C51.5809 3.26315 51.3569 3.08904 51.1287 2.92106C48.5509 1.02318 45.3948 -0.0035219 42.1494 9.07726e-06C33.9745 9.07726e-06 27.3223 6.40186 27.3223 14.2713C27.3219 15.139 27.4039 16.005 27.5672 16.8583C27.5675 16.8631 27.5682 16.8679 27.5694 16.8725C27.6441 17.2642 27.7366 17.6509 27.8438 18.0304C28.6037 20.7095 30.1591 23.1169 32.3195 24.9576C34.4799 26.7983 37.1513 27.9923 40.0063 28.3932C42.8613 28.7941 45.7758 28.3844 48.3925 27.2145C51.0092 26.0446 53.2143 24.1652 54.7377 21.8068C54.9427 21.4889 55.1355 21.163 55.316 20.829C56.4675 18.6904 57.037 16.3057 56.9714 13.8978C56.9057 11.4899 56.2071 9.1373 54.9407 7.05976ZM42.1494 28.3402C40.2297 28.3408 38.3287 27.9774 36.555 27.2706C34.7813 26.5638 33.1697 25.5275 31.8123 24.2209C30.4548 22.9144 29.3782 21.3632 28.6439 19.656C27.9095 17.9488 27.5319 16.1191 27.5326 14.2713C27.5326 6.51315 34.0901 0.202439 42.1494 0.202439C44.0997 0.203503 46.0301 0.580357 47.8267 1.31079C49.6233 2.04122 51.2498 3.11045 52.6104 4.45544C52.9652 4.80409 53.3001 5.17104 53.6136 5.55468C53.9239 5.93007 54.2135 6.32096 54.4811 6.72572C55.5966 8.41247 56.3256 10.3088 56.6194 12.2882C56.9131 14.2677 56.7649 16.2846 56.1846 18.2045C56.0553 18.6336 55.9039 19.0537 55.7335 19.4657C55.5621 19.8786 55.3718 20.2835 55.1614 20.6762C53.9316 22.9796 52.0671 24.9129 49.7721 26.2647C47.4771 27.6164 44.84 28.3345 42.1494 28.3402Z" fill="#3F3D56"/>
<path d="M62.3197 47.8715L61.3532 47.8636L60.9253 44.1917L62.3519 44.2033L62.3197 47.8715Z" fill="#FFB6B6"/>
<path d="M62.5761 47.4424L62.3237 47.4262L61.2942 47.3584L60.9629 47.3372L60.9567 48.0021L59.413 49.0102C59.3367 49.0601 59.279 49.1321 59.2483 49.2157C59.2176 49.2994 59.2155 49.3903 59.2423 49.4752C59.269 49.5601 59.3233 49.6345 59.3972 49.6876C59.471 49.7407 59.5605 49.7697 59.6527 49.7703L61.5739 49.7855L61.9104 49.1297L62.0335 49.7896L62.759 49.7956L62.5761 47.4424Z" fill="#2F2E41"/>
<path d="M72.496 47.1917L71.5722 47.4651L70.0127 44.0887L71.3763 43.6853L72.496 47.1917Z" fill="#FFB6B6"/>
<path d="M72.606 46.7087L72.36 46.7665L71.3579 47.0003L71.0351 47.0762L71.238 47.7128L70.0823 49.1217C70.0321 49.1832 70.0009 49.2569 69.9922 49.3346C69.9835 49.4123 69.9977 49.4907 70.0331 49.561C70.0686 49.6313 70.1238 49.6906 70.1926 49.7321C70.2613 49.7736 70.3408 49.7957 70.422 49.7958C70.4648 49.7957 70.5073 49.7896 70.5482 49.7776L72.3853 49.2341L72.4999 48.5104L72.8248 49.1035L73.5178 48.8981L72.606 46.7087Z" fill="#2F2E41"/>
<path d="M60.3756 16.9956L58.5311 22.1549L58.4702 22.5678C58.0055 22.9925 58.5893 23.1324 58.3704 23.2444C58.1515 23.3565 58.0042 23.6704 58.2992 23.7265C58.5942 23.7827 59.5454 43.9061 60.7999 44.6874C62.0545 45.4688 62.818 46.0339 62.5876 44.8899C62.4948 44.4289 62.6261 41.9574 62.816 39.1704C62.8375 38.8545 63.1776 38.5202 62.8826 38.2131C62.5876 37.906 62.9189 37.7039 62.9375 37.4491C63.2021 33.8097 63.5076 30.2167 63.5076 30.2167C63.5076 30.2167 65.4629 36.68 65.9707 36.1796C66.4784 35.6793 66.2774 36.9112 66.4326 37.2793C66.5623 37.5869 66.009 38.1911 66.8221 38.2004C67.6351 38.2097 69.5446 44.4921 69.7383 44.485C70.122 44.4709 71.2008 44.5107 71.8414 44.3838C72.1578 44.3211 70.7535 39.5646 69.5809 35.4573C69.4874 35.1298 68.9785 35.1222 69.3058 34.4898C69.6331 33.8574 68.0045 29.7657 68.1443 29.5764C68.5152 29.0741 68.6565 28.8558 68.2907 28.8229C67.9248 28.79 67.8168 28.9832 67.797 28.4959C67.7773 28.0087 67.7141 26.8071 67.7141 26.8071C67.7141 26.8071 67.4491 22.0552 65.5935 19.4298L65.4353 17.8699L60.3756 16.9956Z" fill="#2F2E41"/>
<path d="M64.9834 7.14526L62.5374 7.48049L62.3898 9.18526L61.1828 11.0026C61.1828 11.0026 58.4999 12.8199 60.371 15.6907C59.6589 18.1637 58.951 20.5354 58.276 22.1166C57.7503 25.2542 62.4605 25.555 67.8453 24.4445C67.8453 24.4445 67.7711 23.1029 67.2824 22.4579C66.7937 21.8129 67.0597 21.6721 67.0597 21.6721L66.7183 20.4671C66.9115 18.7254 66.2591 18.5691 65.9525 17.7643L66.8834 9.41464L64.9834 7.14526Z" fill="#E6E6E6"/>
<path d="M53.2415 21.7395C53.2674 21.5719 53.3602 21.4206 53.5003 21.3179C53.6403 21.2152 53.8164 21.1691 53.9912 21.1895C54.0267 21.1941 54.0617 21.2016 54.0959 21.2119L55.5127 19.3977L56.7221 19.7658L54.502 22.049C54.4469 22.1821 54.3476 22.294 54.2196 22.367C54.0915 22.4401 53.942 22.4704 53.7942 22.453C53.7102 22.4424 53.6292 22.4159 53.5559 22.3751C53.4825 22.3344 53.4182 22.2801 53.3667 22.2154C53.3151 22.1507 53.2773 22.0769 53.2554 21.9981C53.2335 21.9194 53.2279 21.8372 53.2389 21.7564C53.2397 21.7508 53.2406 21.7451 53.2415 21.7395Z" fill="#FFB6B6"/>
<path d="M65.8262 10.4444C65.7915 10.4029 65.7537 10.3624 65.7137 10.3229C65.436 10.0474 65.0783 9.85901 64.6874 9.78244C64.2966 9.70587 63.8908 9.74468 63.5233 9.89378C63.4876 9.90792 63.4518 9.92412 63.4171 9.94034C62.1605 10.5344 61.4822 10.9302 61.4002 11.1154C61.3718 11.1782 61.3476 11.2399 61.3234 11.2996C61.3003 11.3583 61.2782 11.414 61.2551 11.4646C61.1584 11.6812 61.0469 11.8158 60.7629 11.7551C60.6688 11.7329 60.578 11.6993 60.4927 11.6549C60.4538 11.6367 60.418 11.6175 60.3844 11.5992C60.2624 11.5345 60.1741 11.4879 60.1141 11.5304C60.0563 11.5719 60.0542 11.6772 60.1068 11.9211C60.1242 12.0229 60.1213 12.127 60.0984 12.2278C60.0288 12.5218 59.92 12.8059 59.7745 13.0729C59.5565 13.4915 59.3113 13.8965 59.0405 14.2855L56.5388 17.7187L56.3695 17.9505L56.1844 18.2045L54.708 20.2309L54.7953 20.3168L55.1612 20.6762L55.2422 20.7562L55.3158 20.829L55.5062 21.0163L55.6849 21.1914L59.6735 18.0638L60.1184 17.7146L60.9154 17.0891L62.5485 15.8088L65.6391 13.0557C65.8342 12.8833 65.9911 12.6748 66.1004 12.4426C66.2097 12.2104 66.2692 11.9593 66.2753 11.7045C66.2753 11.6873 66.2763 11.6711 66.2763 11.6539C66.2775 11.2125 66.1183 10.7847 65.8262 10.4444Z" fill="#E6E6E6"/>
<path d="M63.515 7.08306C65.0245 7.08306 66.2482 5.90523 66.2482 4.4523C66.2482 2.99937 65.0245 1.82153 63.515 1.82153C62.0054 1.82153 60.7817 2.99937 60.7817 4.4523C60.7817 5.90523 62.0054 7.08306 63.515 7.08306Z" fill="#FFB6B6"/>
<path d="M67.1371 8.10033C67.504 8.60565 67.7493 9.18321 67.8555 9.79113C67.5598 9.97316 67.2157 10.0688 66.8648 10.0664C66.8529 10.0221 66.841 9.97791 66.8273 9.93367C66.7257 9.59113 66.5744 9.26407 66.378 8.96212C66.4049 9.28772 66.359 9.61509 66.2435 9.92221C66.0581 9.84109 65.8593 9.79174 65.6562 9.77639C65.4908 9.77638 65.3276 9.8134 65.1796 9.88452C65.0077 9.33567 64.8494 8.83105 64.7371 8.46897C64.7337 9.37663 63.3515 10.168 61.8434 10.0533C61.7889 10.0205 62.3353 8.52795 62.2825 8.49354C62.1617 8.41655 62.0442 8.33299 61.9268 8.25107C62.4204 7.51707 62.9566 6.73066 62.8647 6.6127C62.8715 6.75852 62.3302 7.45973 61.7412 8.12163C61.4144 7.89063 63.2715 4.13221 62.354 3.82747C62.3387 3.96018 62.1361 3.96018 61.8893 3.93233C61.8242 3.71337 61.7274 3.50433 61.6017 3.31138C61.618 3.50574 61.5937 3.70129 61.5302 3.88645C61.2865 3.88651 61.0434 3.91123 60.8051 3.96018C60.7499 3.87665 60.6891 3.79674 60.6229 3.72097C60.6294 3.81331 60.6266 3.90605 60.6144 3.99786C60.371 4.04865 60.1701 4.10762 60.1412 4.15514C59.9506 4.08797 60.2757 3.78487 60.1565 3.62758C59.8535 3.23438 60.3029 2.66095 60.5872 2.25463C61.171 1.42234 62.4528 1.13399 63.36 1.63369C63.4009 1.4977 63.6102 1.4076 63.8792 1.34698C63.9931 1.32279 64.1098 1.31234 64.2264 1.31585C65.3839 1.33551 66.9908 2.25463 67.0537 3.36709C67.0589 3.4785 67.0674 3.59973 67.0759 3.72916C67.1576 4.97433 67.0571 6.12283 67.9406 7.03376C68.2606 7.36306 68.264 8.9228 68.1414 9.7256C67.8231 9.40284 67.5967 8.14785 67.1371 8.10033Z" fill="#2F2E41"/>
<path d="M37.0347 14.6266C37.2089 14.6266 37.3502 14.4906 37.3502 14.3229C37.3502 14.1552 37.2089 14.0193 37.0347 14.0193C36.8605 14.0193 36.7192 14.1552 36.7192 14.3229C36.7192 14.4906 36.8605 14.6266 37.0347 14.6266Z" fill="#4C38C2"/>
<path d="M47.0245 14.4242C47.1987 14.4242 47.3399 14.2882 47.3399 14.1205C47.3399 13.9528 47.1987 13.8169 47.0245 13.8169C46.8502 13.8169 46.709 13.9528 46.709 14.1205C46.709 14.2882 46.8502 14.4242 47.0245 14.4242Z" fill="#4C38C2"/>
<path d="M16.995 5.5462C16.7549 6.12172 16.0776 7.2535 15.9858 7.87091L16.0271 7.83183C16.1059 7.96134 16.1954 8.08452 16.2948 8.20017C16.4729 8.02012 16.688 7.87775 16.9264 7.78213C16.7962 8.03925 16.7208 8.31886 16.7047 8.60447C16.9603 9.37567 18.142 9.03224 18.8343 8.94803C19.5257 9.70925 20.4456 9.90788 21.6501 9.47025C21.987 9.50363 22.3641 9.52389 22.6002 9.33229C22.8363 9.14069 22.6957 8.78586 22.8227 8.51749C23.7274 6.60584 22.8925 5.91614 22.1831 5.04933C22.027 4.85857 22.0276 4.57391 21.8377 4.39191C21.5741 4.13964 21.1701 4.06204 20.7976 3.99989C20.8944 4.00479 20.9908 3.98564 21.0777 3.94428C21.1645 3.90291 21.2388 3.84073 21.2935 3.76371C21.3414 3.68611 21.3662 3.59728 21.365 3.50702C21.3638 3.41675 21.3367 3.32855 21.2867 3.25215C21.1535 3.03957 20.8767 2.91596 20.6096 2.88508C20.3465 2.86788 20.0822 2.88975 19.826 2.94991C19.6601 2.97092 19.4994 3.02037 19.3515 3.0959C19.2818 3.13172 19.225 3.18719 19.1889 3.25489C19.1528 3.32258 19.139 3.39928 19.1494 3.47472C19.1716 3.54439 19.2099 3.60833 19.2614 3.66176C19.3129 3.7152 19.3763 3.75675 19.4468 3.78332C19.5543 3.82707 19.6674 3.85687 19.7831 3.87193C19.2518 3.80556 18.712 3.89649 18.2357 4.13262C17.6387 4.43911 17.2359 4.97099 16.995 5.5462Z" fill="#2F2E41"/>
<path d="M20.2272 8.7729C21.4057 8.7729 22.3611 7.85333 22.3611 6.71897C22.3611 5.58462 21.4057 4.66504 20.2272 4.66504C19.0487 4.66504 18.0933 5.58462 18.0933 6.71897C18.0933 7.85333 19.0487 8.7729 20.2272 8.7729Z" fill="#A0616A"/>
<path d="M18.1737 5.6177C18.2975 5.97762 18.651 6.0936 18.9778 6.16593C19.0809 6.18905 19.1846 6.21059 19.2892 6.22976C19.3278 6.1833 19.3689 6.13777 19.4117 6.09474C19.5898 5.91469 19.805 5.77232 20.0434 5.6767C19.9403 5.8798 19.8718 6.09753 19.8405 6.32157C20.038 6.34916 20.2367 6.37171 20.4364 6.38921C20.6054 6.42383 20.7818 6.39464 20.9291 6.30766C21.0763 6.22068 21.1833 6.08257 21.2278 5.92186C21.4096 6.20809 21.6246 6.47764 21.9187 6.59134C22.0868 6.64949 22.2699 6.65427 22.4411 6.60498C22.6122 6.55569 22.7625 6.45492 22.8699 6.31744C23.0394 6.09318 23.1569 5.8365 23.2146 5.56475C23.298 5.24602 23.3444 4.87886 23.1805 4.67664C23.0493 4.51298 22.8229 4.51004 22.6139 4.52456C22.1529 4.55861 21.6966 4.63822 21.2525 4.76214L21.2149 4.84351C21.2912 4.40213 21.1256 3.97747 20.8193 3.82644C20.6127 3.72546 20.364 3.74239 20.1225 3.76288C19.8122 3.7762 19.5057 3.83327 19.2126 3.93225C18.8764 4.05672 18.5884 4.27813 18.3879 4.56619C18.1735 4.87953 18.067 5.30687 18.1737 5.6177Z" fill="#2F2E41"/>
<path d="M21.2162 3.69781C21.1952 3.69183 21.2497 3.69951 21.2308 3.7C21.2402 3.69948 21.2495 3.69822 21.2587 3.69624C21.2603 3.69593 21.2815 3.68941 21.2674 3.69421C21.2991 3.68509 21.3274 3.66733 21.3488 3.64308C21.3989 3.58342 21.4383 3.51605 21.4651 3.44381C21.4991 3.34835 21.5536 3.26087 21.6251 3.18711C21.6454 3.16749 21.6702 3.15275 21.6975 3.14409C21.7249 3.13543 21.7539 3.13309 21.7824 3.13727C21.8108 3.14145 21.8378 3.15202 21.8612 3.16814C21.8846 3.18425 21.9037 3.20545 21.917 3.23001C21.944 3.32475 21.9348 3.42568 21.891 3.51442C21.8604 3.60472 21.8149 3.68968 21.7562 3.76602C21.6578 3.89086 21.5238 3.98546 21.3706 4.03829C21.1932 4.1003 20.9998 4.10562 20.819 4.05346C20.7952 4.04393 20.7747 4.02791 20.7601 4.00736C20.7455 3.98682 20.7374 3.96264 20.7368 3.93775C20.7363 3.91287 20.7433 3.88837 20.7569 3.86724C20.7705 3.8461 20.7903 3.82924 20.8137 3.81871L21.1152 3.69993C21.1311 3.69321 21.1482 3.68956 21.1655 3.6892C21.1828 3.68883 21.2001 3.69176 21.2162 3.69781C21.2324 3.70386 21.2471 3.71291 21.2597 3.72445C21.2722 3.73599 21.2822 3.74979 21.2892 3.76507C21.2962 3.78034 21.3 3.79679 21.3004 3.81347C21.3007 3.83016 21.2977 3.84675 21.2914 3.86231C21.2851 3.87786 21.2757 3.89207 21.2637 3.90412C21.2518 3.91618 21.2374 3.92584 21.2215 3.93256L20.9201 4.05134L20.9147 3.81659C20.9523 3.82704 20.9911 3.83341 21.0301 3.83558C21.0718 3.8396 21.1139 3.83789 21.1551 3.83051C21.1946 3.82553 21.2334 3.81642 21.2708 3.80336C21.2948 3.79494 21.3183 3.78535 21.3412 3.77463C21.3496 3.77073 21.3578 3.76669 21.366 3.76249C21.3654 3.7628 21.4005 3.74313 21.3851 3.75237C21.4241 3.72839 21.4607 3.70096 21.4944 3.67044C21.5063 3.65962 21.5173 3.64787 21.5272 3.63533C21.5443 3.61502 21.5603 3.59377 21.5749 3.57167C21.6046 3.52487 21.6281 3.4747 21.6449 3.42231C21.6526 3.40029 21.659 3.3779 21.6643 3.35523C21.6657 3.34279 21.6681 3.33046 21.6713 3.31832C21.6825 3.2894 21.6691 3.33521 21.682 3.34773L21.7376 3.38715C21.748 3.39014 21.759 3.39084 21.7698 3.38918C21.7805 3.38752 21.7908 3.38356 21.7997 3.37758C21.8063 3.36866 21.8048 3.37014 21.7954 3.38202C21.7844 3.39599 21.7743 3.41063 21.7652 3.42583C21.7453 3.46163 21.7273 3.49837 21.7112 3.53593C21.6781 3.6158 21.6361 3.69203 21.5861 3.76332C21.5372 3.83544 21.4658 3.89083 21.3822 3.9216C21.2986 3.95237 21.207 3.95695 21.1205 3.93469C21.0881 3.92225 21.062 3.89804 21.0479 3.86726C21.0339 3.83649 21.0329 3.80162 21.0453 3.77019C21.0586 3.73922 21.0838 3.71438 21.1156 3.70089C21.1475 3.6874 21.1835 3.68629 21.2162 3.69781Z" fill="#2F2E41"/>
</g>
<defs>
<clipPath id="clip0_42_160">
<rect width="76" height="50" fill="white"/>
</clipPath>
</defs>
</svg>
