<svg width="76" height="70" viewBox="0 0 76 70" fill="none" xmlns="http://www.w3.org/2000/svg">
<g clip-path="url(#clip0_42_203)">
<path d="M59.7482 24.8154C59.7482 24.9715 59.7295 25.1315 59.6902 25.2914L58.0456 32.0215C57.8123 32.9783 56.8153 33.5708 55.8213 33.3446L49.2303 31.3779L48.9085 31.2823C48.5335 31.5435 48.0099 31.6637 47.4627 31.571C46.5061 31.4082 45.8437 30.6596 45.9835 29.8977C46.1232 29.1368 47.0119 28.6513 47.9686 28.8131C48.5158 28.9058 48.9655 29.1907 49.2254 29.5589L49.2303 29.5598L49.247 29.5627L54.9838 30.2451L55.466 24.6497C55.5576 23.5803 56.4866 22.7578 57.6027 22.7578C58.8132 22.7578 59.7482 23.709 59.7482 24.8154Z" fill="#ED9DA0"/>
<path d="M59.7481 24.8154C59.7481 24.9715 59.7294 25.1314 59.69 25.2914L58.3407 32.3054C58.1075 33.2623 57.1104 33.8547 56.1164 33.6286L49.5254 31.8663L49.8206 29.1216L54.84 29.7841L55.4659 24.6497C55.5574 23.5803 56.4865 22.7578 57.6025 22.7578C58.8131 22.7578 59.7481 23.709 59.7481 24.8154Z" fill="#2F2E43"/>
<path d="M0 69.9131H5.96256H11.2624H11.4755H16.1412H48.0931H55.6964H76" stroke="#090814" stroke-width="1.5" stroke-miterlimit="10"/>
<path d="M68.3083 61.7747L66.7163 62.9033L67.89 64.4343L69.482 63.3056L68.3083 61.7747Z" fill="#ED9DA0"/>
<path d="M70.2776 64.8909L66.8936 67.29C66.6044 67.495 66.2649 67.6374 65.9118 67.7017L65.0669 67.8556C64.8922 67.8874 64.7111 67.8191 64.6056 67.6814C64.4819 67.52 64.4854 67.2971 64.6141 67.1394L65.6386 65.8845L66.9873 63.2105L66.995 63.2174C67.19 63.3888 67.486 63.6465 67.5082 63.6591C67.9247 63.7478 68.2446 63.698 68.4589 63.5111C68.8328 63.1853 68.7575 62.5461 68.7567 62.5396L68.756 62.5347L68.7605 62.5322C68.8623 62.4745 68.9604 62.4616 69.0521 62.4938C69.2468 62.5621 69.3484 62.8078 69.3629 62.8454C69.553 62.8711 70.0472 63.416 70.0869 63.4601C70.3713 63.5097 70.5671 63.6123 70.6688 63.7652C70.7577 63.8989 70.775 64.0694 70.7201 64.2719C70.654 64.5156 70.4969 64.7354 70.2776 64.8909Z" fill="#2F2E43"/>
<path d="M54.6566 66.2417H52.6787V68.1437H54.6566V66.2417Z" fill="#ED9DA0"/>
<path d="M54.3187 69.8739H50.1144C49.7551 69.8739 49.394 69.7948 49.0701 69.6451L48.2951 69.2868C48.1348 69.2127 48.0312 69.0544 48.0312 68.8834C48.0312 68.6829 48.1716 68.5055 48.3726 68.452L49.9716 68.0265L52.7071 66.6438L52.7091 66.6538C52.7603 66.9029 52.8395 67.2793 52.8496 67.3021C53.1302 67.6112 53.4183 67.7536 53.7062 67.7255C54.2082 67.6766 54.542 67.1191 54.5453 67.1135L54.5478 67.1092L54.5529 67.1097C54.6705 67.1214 54.7575 67.167 54.8114 67.2452C54.9259 67.4113 54.8561 67.667 54.8446 67.7056C54.9817 67.8346 55.0433 68.5553 55.048 68.6135C55.2464 68.8156 55.3406 69.01 55.3281 69.1911C55.3172 69.3494 55.2259 69.4965 55.0567 69.6282C54.8532 69.7867 54.5911 69.8739 54.3187 69.8739Z" fill="#2F2E43"/>
<path d="M62.7265 36.5098H53.2473L51.7363 66.7506H55.0746L57.2314 53.0047L65.8863 64.0014L69.046 61.2522L62.7265 53.0047V36.5098Z" fill="#2F2E43"/>
<path d="M60.2859 16.6357C60.2859 16.6357 62.8976 16.6303 61.9219 14.2103C60.9463 11.7904 59.1296 12.8739 59.1296 12.8739C59.1296 12.8739 58.3641 13.2628 58.5219 14.1303" fill="#2F2E43"/>
<path d="M60.5475 17.7965C60.5475 15.9411 58.9834 14.437 57.054 14.437C55.1247 14.437 53.5605 15.9411 53.5605 17.7965C53.5605 19.3013 54.5893 20.5748 56.0074 21.0025L56.6827 25.2945L60.1256 22.5355C60.1256 22.5355 59.3818 21.6245 58.983 20.5973C59.9257 19.9956 60.5475 18.9661 60.5475 17.7965Z" fill="#ED9DA0"/>
<path d="M58.7325 20.6344C58.7325 20.6344 59.1964 18.924 58.4378 18.1375C57.681 17.3528 57.5832 18.5738 57.5832 18.5738L57.0371 18.4596C57.0371 18.4596 57.1321 17.2723 56.0636 17.0668L56.7522 15.6511C56.7522 15.6511 54.1159 16.1433 54.0433 15.8978C53.4715 13.9658 58.9258 12.3154 60.4325 15.2629C62.7759 19.8472 58.7325 20.6344 58.7325 20.6344Z" fill="#2F2E43"/>
<path d="M60.6451 32.3643L62.1933 36.7515L53.4341 36.6568L54.74 32.6482L60.6451 32.3643Z" fill="#ED9DA0"/>
<path d="M59.8539 21.229L55.9696 22.5276L52.2974 40.7583L59.8539 41.6455L60.4049 38.866L60.9302 41.6455H63.5477L60.7257 23.5164C60.5994 22.705 60.3028 21.9267 59.8539 21.229Z" fill="#4C38C2"/>
<path d="M58.7651 42.6498L58.8327 39.6532L57.0133 39.6152L56.9457 42.6118C56.6063 42.9149 56.3822 43.3857 56.3701 43.9196C56.3491 44.8536 56.9836 45.6245 57.7875 45.6412C58.5914 45.658 59.2601 44.9144 59.2812 43.9803C59.2932 43.4465 59.0906 42.9667 58.7651 42.6498Z" fill="#ED9DA0"/>
<path d="M56.2529 27.6519V42.1766H59.4127L60.3465 27.7745" fill="#2F2E43"/>
<path d="M62.6161 43.0577C62.5607 43.0577 62.5052 43.0558 62.4496 43.0517C61.7856 43.0038 61.2143 42.6614 60.7515 42.0344C59.0096 39.674 55.4971 31.8628 55.4971 29.6416C55.4971 27.5189 55.9776 22.6539 55.9943 22.581L59.5418 20.6921C61.2438 21.0764 62.4284 22.5752 62.3588 24.2559C62.1888 28.3625 62.6266 37.7237 65.491 41.603L65.5146 41.635L65.4864 41.6633C65.4272 41.7222 64.0705 43.0577 62.6161 43.0577Z" fill="#2F2E43"/>
<path d="M42.3676 70H18.5209C15.4137 70 12.8857 67.5691 12.8857 64.581V5.41902C12.8857 2.43095 15.4137 0 18.5209 0H42.3676C45.4748 0 48.0027 2.43095 48.0027 5.41902V64.581C48.0027 67.5691 45.4748 70 42.3676 70Z" fill="#2F2E41"/>
<path d="M42.3922 68.5375H18.4968C16.1654 68.5375 14.2686 66.7134 14.2686 64.4714V5.19624C14.2686 2.95421 16.1654 1.13013 18.4968 1.13013H42.3922C44.7236 1.13013 46.6204 2.95421 46.6204 5.19624V64.4714C46.6204 66.7134 44.7236 68.5375 42.3922 68.5375Z" fill="white"/>
<path d="M34.1774 4.98566H26.5733C25.6967 4.98566 24.9834 4.2998 24.9834 3.4567C24.9834 2.6136 25.6967 1.92773 26.5733 1.92773H34.1774C35.0541 1.92773 35.7674 2.6136 35.7674 3.4567C35.7674 4.2998 35.0541 4.98566 34.1774 4.98566Z" fill="#2F2E41"/>
<path d="M19.6753 16.5542H27.8755" stroke="#090814" stroke-width="2" stroke-miterlimit="10"/>
<path d="M19.6753 19.543H36.9249" stroke="#090814" stroke-width="2" stroke-miterlimit="10"/>
<path d="M19.6753 18.198H44.3841" stroke="#090814" stroke-width="2" stroke-miterlimit="10"/>
<path d="M17.8107 18.6462C18.5832 18.6462 19.2093 18.0441 19.2093 17.3013C19.2093 16.5585 18.5832 15.9563 17.8107 15.9563C17.0383 15.9563 16.4121 16.5585 16.4121 17.3013C16.4121 18.0441 17.0383 18.6462 17.8107 18.6462Z" fill="#4C38C2"/>
<path d="M19.6753 25.4026H27.8755" stroke="#090814" stroke-width="2" stroke-miterlimit="10"/>
<path d="M19.6753 28.3914H36.9249" stroke="#090814" stroke-width="2" stroke-miterlimit="10"/>
<path d="M19.6753 27.0464H44.3841" stroke="#090814" stroke-width="2" stroke-miterlimit="10"/>
<path d="M17.8107 27.4946C18.5832 27.4946 19.2093 26.8925 19.2093 26.1497C19.2093 25.4069 18.5832 24.8047 17.8107 24.8047C17.0383 24.8047 16.4121 25.4069 16.4121 26.1497C16.4121 26.8925 17.0383 27.4946 17.8107 27.4946Z" fill="#4C38C2"/>
<path d="M19.6753 34.2507H27.8755" stroke="#090814" stroke-width="2" stroke-miterlimit="10"/>
<path d="M19.6753 37.2397H36.9249" stroke="#090814" stroke-width="2" stroke-miterlimit="10"/>
<path d="M19.6753 35.8948H44.3841" stroke="#090814" stroke-width="2" stroke-miterlimit="10"/>
<path d="M17.8107 36.343C18.5832 36.343 19.2093 35.7409 19.2093 34.998C19.2093 34.2552 18.5832 33.6531 17.8107 33.6531C17.0383 33.6531 16.4121 34.2552 16.4121 34.998C16.4121 35.7409 17.0383 36.343 17.8107 36.343Z" fill="#4C38C2"/>
</g>
<defs>
<clipPath id="clip0_42_203">
<rect width="76" height="70" fill="white"/>
</clipPath>
</defs>
</svg>
